<svg width="51" height="46" viewBox="0 0 51 46" fill="none" xmlns="http://www.w3.org/2000/svg"><path d="M50.023 24.68c-1.286-3.104-3.736-5.565-6.566-7.085-5.006-2.681-11.224-2.671-16.212.07-3.47 1.882-6.36 5.257-7.18 9.361-.68 3.024-.075 6.276 1.444 8.912 2.258 3.964 6.334 6.495 10.567 7.304 3.063.66 6.233.271 9.213-.633 1.793.729 3.387 1.915 5.122 2.803-.448-1.59-.93-3.17-1.444-4.737 1.951-1.46 3.71-3.287 4.774-5.572 1.578-3.181 1.676-7.137.282-10.424zM28.939 3.382C23.635.227 17.035-.247 11.333 1.933c-3.752 1.433-7.138 4.087-9.239 7.7C.193 12.893-.521 16.963.4 20.69c.913 4.14 3.635 7.61 6.931 9.93a186.732 186.732 0 00-1.818 5.748c2.067-1.142 4.142-2.347 6.217-3.506a21.781 21.781 0 007.777 1.16c-.706-2.117-.864-4.42-.54-6.634.473-3.085 2.067-5.907 4.233-8 3.669-3.638 8.866-5.168 13.804-4.799-.93-4.799-4.117-8.859-8.127-11.206h.062zm3.687 22.474c-.448 1.468-2.458 1.907-3.437.791-1.07-1.027-.655-3.19.756-3.646 1.56-.694 3.361 1.205 2.68 2.857v-.002zm10.184.21c-.54 1.319-2.425 1.628-3.346.607-.448-.43-.572-1.082-.73-1.644.215-1.028.888-2.1 1.977-2.145 1.495-.22 2.838 1.74 2.067 3.181l.032.002zM27.604 11.55c.015 2.161-2.707 3.506-4.233 2.038-1.594-1.205-1.138-4.13.722-4.737 1.668-.703 3.643.773 3.51 2.672v.027zm-12.875.543c-.365 1.882-2.74 2.786-4.134 1.529-1.61-1.205-1.162-4.192.73-4.8 1.86-.755 3.968 1.24 3.403 3.271h.001z" fill="#000"/></svg>