<svg width="47" height="48" viewBox="0 0 47 48" fill="none" xmlns="http://www.w3.org/2000/svg"><path d="M23.5.75C10.923.75.734 11.157.734 24S10.924 47.25 23.5 47.25c12.577 0 22.766-10.407 22.766-23.25S36.076.75 23.5.75zm11.182 15.928L30.945 34.66c-.276 1.276-1.02 1.585-2.056.985l-5.692-4.285-2.745 2.7c-.302.31-.56.572-1.147.572l.404-5.916 10.547-9.732c.46-.413-.101-.647-.708-.234l-13.035 8.38-5.618-1.79c-1.22-.393-1.248-1.247.257-1.847l21.95-8.644c1.019-.376 1.909.253 1.578 1.828l.002.002z" fill="#000"/></svg>