<svg width="47" height="48" viewBox="0 0 47 48" fill="none" xmlns="http://www.w3.org/2000/svg"><path d="M43.485 12.637C36.455 2 22.1-1.163 10.968 5.45.13 12.062-3.386 26.437 3.645 37.075l.586.862-2.344 8.626 8.788-2.3.88.575C15.362 46.85 19.463 48 23.564 48c4.394 0 8.788-1.15 12.596-3.45 10.84-6.9 14.062-20.988 7.324-31.913zm-6.152 22.138c-1.172 1.725-2.636 2.875-4.687 3.162-1.172 0-2.636.575-8.495-1.725-4.98-2.3-9.081-6.037-12.01-10.35-1.758-2.012-2.637-4.6-2.93-7.187 0-2.3.879-4.313 2.343-5.75.586-.575 1.172-.863 1.758-.863h1.465c.586 0 1.171 0 1.464 1.15.586 1.438 2.051 4.888 2.051 5.175.293.288.293.863 0 1.15.293.575 0 1.15-.293 1.438-.293.287-.586.862-.879 1.15-.586.287-.879.862-.586 1.437a33.244 33.244 0 004.102 4.888c1.757 1.437 3.515 2.587 5.565 3.45.586.287 1.172.287 1.465-.288.293-.575 1.758-2.012 2.344-2.587.586-.575.878-.575 1.464-.288l4.687 2.3c.586.288 1.172.575 1.465.863.293.862.293 2.012-.293 2.875z" fill="#000"/></svg>