<svg width="96" height="48" viewBox="0 0 96 48" fill="none" xmlns="http://www.w3.org/2000/svg"><rect width="96" height="48" rx="4" fill="#E55"/><path fill-rule="evenodd" clip-rule="evenodd" d="M43.004 12.072c1.27-.059 1.676-.072 4.913-.072s3.642.014 4.911.072c1.27.057 2.137.26 2.895.553.794.3 1.515.77 2.11 1.376a5.82 5.82 0 011.374 2.11c.295.758.496 1.624.555 2.892.058 1.273.071 1.678.071 4.914 0 3.237-.014 3.642-.071 4.913-.058 1.267-.26 2.134-.555 2.892a5.845 5.845 0 01-1.373 2.111 5.843 5.843 0 01-2.11 1.374c-.76.295-1.626.496-2.893.555-1.272.058-1.677.071-4.914.071-3.237 0-3.642-.014-4.913-.071-1.268-.058-2.134-.26-2.893-.555A5.848 5.848 0 0138 33.834a5.842 5.842 0 01-1.375-2.11c-.294-.76-.495-1.626-.553-2.893-.059-1.273-.072-1.678-.072-4.914 0-3.237.014-3.643.072-4.912.057-1.27.26-2.136.553-2.895.3-.795.77-1.515 1.376-2.11a5.842 5.842 0 012.11-1.375c.758-.293 1.624-.495 2.892-.553zm9.728 2.145c-1.257-.058-1.634-.07-4.815-.07-3.182 0-3.56.012-4.816.07-1.162.053-1.793.246-2.213.41a3.7 3.7 0 00-1.37.89c-.396.385-.7.854-.89 1.371-.164.42-.358 1.05-.411 2.213-.058 1.257-.07 1.634-.07 4.816 0 3.181.012 3.558.07 4.815.053 1.163.247 1.793.41 2.213.19.517.495.986.89 1.37a3.7 3.7 0 001.371.891c.42.164 1.05.358 2.213.41 1.257.058 1.633.07 4.816.07 3.182 0 3.558-.012 4.815-.07 1.163-.052 1.793-.246 2.213-.41a3.698 3.698 0 001.37-.89c.396-.385.7-.854.891-1.37.164-.421.358-1.052.41-2.214.058-1.257.07-1.634.07-4.815 0-3.182-.012-3.56-.07-4.816-.052-1.162-.246-1.793-.41-2.213a3.7 3.7 0 00-.89-1.37 3.696 3.696 0 00-1.37-.89c-.421-.165-1.051-.358-2.214-.412zM46.395 27.59a3.974 3.974 0 004.333-6.485 3.975 3.975 0 10-4.333 6.485zm-2.81-8.005a6.124 6.124 0 118.662 8.661 6.124 6.124 0 01-8.661-8.66zm11.815-.881a1.45 1.45 0 10-1.99-2.11 1.45 1.45 0 001.99 2.11z" fill="#fff"/></svg>