<svg width="27" height="24" viewBox="0 0 27 24" fill="none" xmlns="http://www.w3.org/2000/svg"><path d="M26.5 13.13c-.658-1.587-1.91-2.845-3.358-3.622-2.56-1.371-5.738-1.366-8.289.036-1.774.962-3.251 2.688-3.67 4.786-.349 1.546-.04 3.209.737 4.557 1.155 2.027 3.239 3.32 5.403 3.734 1.566.338 3.187.14 4.711-.323.917.372 1.732.979 2.62 1.433a59.84 59.84 0 00-.74-2.422c.998-.747 1.898-1.681 2.442-2.85.806-1.626.857-3.648.144-5.329zM15.72 2.241C13.006.627 9.633.385 6.716 1.5c-1.918.732-3.65 2.09-4.724 3.937C1.02 7.104.655 9.185 1.126 11.09c.467 2.117 1.859 3.892 3.544 5.078a95.481 95.481 0 00-.93 2.939c1.057-.584 2.118-1.2 3.18-1.793a11.12 11.12 0 003.976.593c-.361-1.082-.442-2.26-.276-3.392.242-1.578 1.057-3.02 2.164-4.09 1.876-1.86 4.533-2.643 7.058-2.454-.475-2.454-2.105-4.53-4.155-5.73h.031zm1.884 11.491c-.229.75-1.256.975-1.757.405-.547-.526-.335-1.632.387-1.865.797-.354 1.718.616 1.37 1.461zm5.207.108c-.276.674-1.239.832-1.71.31-.229-.22-.293-.553-.373-.84.11-.526.454-1.075 1.01-1.097.765-.112 1.452.89 1.057 1.626l.016.001zm-7.774-7.424c.008 1.106-1.384 1.793-2.165 1.043-.815-.617-.582-2.113.37-2.422.853-.36 1.862.395 1.795 1.365v.014zm-6.583.278c-.187.962-1.401 1.425-2.114.782-.823-.616-.594-2.143.373-2.454.951-.387 2.03.633 1.74 1.672z" fill="#fff"/></svg>