<svg width="25" height="25" viewBox="0 0 25 25" fill="none" xmlns="http://www.w3.org/2000/svg"><g clip-path="url(#clip0)"><path d="M12.477.383C6.047.383.837 5.705.837 12.271c0 6.567 5.21 11.888 11.64 11.888 6.43 0 11.64-5.32 11.64-11.888 0-6.566-5.21-11.888-11.64-11.888zm5.717 8.145l-1.91 9.194c-.141.652-.521.81-1.051.503l-2.91-2.19-1.404 1.38c-.155.159-.286.293-.587.293l.207-3.025 5.393-4.976c.235-.211-.052-.33-.362-.12l-6.665 4.285-2.873-.916c-.624-.2-.638-.637.132-.944l11.222-4.42c.521-.192.977.13.808.935z" fill="#fff"/></g><defs><clipPath id="clip0"><path fill="#fff" transform="translate(.461)" d="M0 0h24.032v24.543H0z"/></clipPath></defs></svg>