<svg width="88" height="44" viewBox="0 0 88 44" fill="none" xmlns="http://www.w3.org/2000/svg"><rect width="88" height="44" rx="4" fill="#55ACEE"/><path d="M57.714 13.604a10.86 10.86 0 01-3.148.875 5.557 5.557 0 002.41-3.073 10.89 10.89 0 01-3.48 1.348 5.44 5.44 0 00-4-1.754c-3.028 0-5.482 2.487-5.482 5.554 0 .435.049.859.142 1.266-4.555-.232-8.593-2.443-11.296-5.803a5.586 5.586 0 00-.742 2.792 5.57 5.57 0 002.438 4.623 5.404 5.404 0 01-2.483-.695v.07c0 2.69 1.89 4.935 4.396 5.446a5.418 5.418 0 01-2.475.095c.698 2.206 2.722 3.812 5.12 3.857a10.906 10.906 0 01-8.114 2.3A15.365 15.365 0 0039.401 33c10.082 0 15.594-8.463 15.594-15.802 0-.241-.005-.48-.016-.719 1.073-.786 2-1.76 2.735-2.875z" fill="#fff"/></svg>