<svg width="25" height="25" viewBox="0 0 25 25" fill="none" xmlns="http://www.w3.org/2000/svg"><g clip-path="url(#clip0)"><path d="M22.234 6.462C18.64 1.021 11.3-.596 5.608 2.785c-5.542 3.382-7.34 10.732-3.744 16.17l.3.442-1.2 4.41 4.494-1.176.45.294c1.947 1.029 4.044 1.617 6.141 1.617 2.247 0 4.494-.588 6.44-1.764a11.862 11.862 0 003.745-16.317zM19.09 17.78c-.6.882-1.348 1.47-2.397 1.617-.599 0-1.348.294-4.343-.882-2.547-1.176-4.644-3.087-6.142-5.292-.898-1.03-1.348-2.352-1.497-3.675 0-1.176.449-2.205 1.198-2.94.3-.295.599-.441.899-.441h.748c.3 0 .6 0 .75.588.299.735 1.048 2.499 1.048 2.646a.44.44 0 010 .588c.15.294 0 .588-.15.735-.15.147-.3.44-.45.588-.299.147-.449.44-.299.735.6.882 1.348 1.764 2.097 2.499.899.735 1.798 1.323 2.846 1.764.3.147.6.147.749-.147.15-.294.899-1.03 1.198-1.323.3-.294.45-.294.75-.147l2.396 1.176c.3.147.599.294.749.44.15.442.15 1.03-.15 1.47z" fill="#fff"/></g><defs><clipPath id="clip0"><path fill="#fff" d="M0 0h24.032v24.543H0z"/></clipPath></defs></svg>