<svg width="16" height="16" viewBox="0 0 16 16" fill="none" xmlns="http://www.w3.org/2000/svg"><path d="M8.16 3.024C6.859 1.536 5.062 1.208 3.53 1.737 1.844 2.319.5 3.932.5 6.067c0 .886.497 1.815 1.136 2.667.653.869 1.52 1.74 2.388 2.526a45.651 45.651 0 002.461 2.051c.214.168.415.323.592.46l.3.233c.247.192.385.305.433.352l.35.346.352-.345a8.01 8.01 0 01.428-.359l.205-.165c.19-.152.41-.33.652-.528a42.75 42.75 0 002.35-2.053c.829-.786 1.654-1.658 2.275-2.528.61-.854 1.078-1.78 1.078-2.658 0-2.1-1.244-3.721-2.857-4.315-1.473-.542-3.198-.207-4.482 1.273z" stroke="red"/></svg>